# xmcd
#
# Track frame offsets:
#	150
#	15490
#	34230
#	52238
#	63300
#	74325
#	94125
#	112320
#	127228
#	143370
#	157008
#	174920
#	186618
#
# Disc length: 2754 seconds
#
# Revision: 1
# Processed by: cddbd v1.5.2PL0 Copyright (c) Steve Scherf et al.
# Submitted via: EZCDAudioConverter 2.4.0.1
#
DISCID=c30ac00d
DTITLE=The Souvenirs - King Of Heartache
DYEAR=1999
DGENRE=Country
TTITLE0=One Less Fool
TTITLE1=King Of Heartache
TTITLE2=1000 Miles Away
TTITLE3=Shades Of Blue
TTITLE4=Cherry Lips
TTITLE5=So Tired Of Missing You
TTITLE6=Anna Marie
TTITLE7=Born Just To Be Blue
TTITLE8=Sentimental
TTITLE9=I Will Be With You
TTITLE10=Hide Away
TTITLE11=Your Old Used To Be
TTITLE12=Heartbroken Man
EXTD=
EXTT0=
EXTT1=
EXTT2=
EXTT3=
EXTT4=
EXTT5=
EXTT6=
EXTT7=
EXTT8=
EXTT9=
EXTT10=
EXTT11=
EXTT12=
PLAYORDER=
